<?xml version="1.0" standalone="no"?>
<!DOCTYPE svg PUBLIC "-//W3C//DTD SVG 20010904//EN"
 "http://www.w3.org/TR/2001/REC-SVG-20010904/DTD/svg10.dtd">
<svg version="1.0" xmlns="http://www.w3.org/2000/svg"
 width="733.000000pt" height="733.000000pt" viewBox="0 0 733.000000 733.000000"
 preserveAspectRatio="xMidYMid meet">
<metadata>
Created by potrace 1.11, written by Peter Selinger 2001-2013
</metadata>
<g transform="translate(0.000000,733.000000) scale(0.100000,-0.100000)"
fill="#000000" stroke="none">
<path d="M3395 6445 c-49 -7 -115 -20 -145 -29 -30 -9 -73 -21 -95 -27 -22 -6
-44 -14 -50 -20 -5 -5 -18 -9 -30 -9 -12 0 -25 -4 -31 -9 -5 -5 -47 -29 -94
-53 -92 -48 -132 -70 -140 -78 -3 -3 -30 -21 -60 -40 -122 -77 -274 -202 -364
-299 -23 -25 -55 -58 -72 -75 -32 -33 -124 -151 -124 -160 0 -3 -16 -30 -35
-60 -19 -30 -42 -74 -51 -98 -10 -23 -23 -50 -31 -59 -7 -8 -13 -21 -13 -27 0
-7 -4 -20 -9 -30 -20 -39 -73 -190 -91 -262 -32 -123 -72 -316 -80 -380 -13
-111 -29 -201 -40 -234 -13 -38 -13 -1123 0 -1197 9 -50 19 -145 40 -369 4
-47 15 -110 23 -140 9 -30 18 -66 21 -80 9 -48 -5 216 -19 360 -8 80 -16 211
-19 291 -6 165 2 196 63 236 31 21 46 23 160 23 69 0 132 4 138 8 8 5 16 50
22 118 9 110 20 156 41 169 8 5 10 24 6 59 -6 48 -5 53 24 81 16 16 31 27 31
24 5 -15 7 -131 2 -163 l-5 -39 -19 24 c-17 22 -19 22 -18 4 0 -11 10 -76 22
-145 25 -138 27 -141 98 -123 l33 9 -20 20 c-20 20 -41 101 -49 189 -6 72 -7
194 -1 204 3 5 3 23 0 41 -5 22 -9 28 -15 18 -15 -22 -10 1 6 32 8 16 14 33
13 38 -2 5 9 34 23 63 165 335 231 468 273 544 167 308 432 492 862 601 82 20
163 46 182 57 27 16 43 18 88 13 31 -3 64 -14 74 -24 10 -9 36 -26 57 -37 21
-11 72 -39 113 -63 251 -148 356 -245 564 -522 77 -102 158 -205 181 -230 23
-25 68 -72 99 -105 60 -64 123 -177 137 -247 22 -105 30 -181 32 -291 2 -95
-1 -120 -13 -128 -9 -6 -11 -12 -5 -15 19 -8 -5 -123 -27 -130 -10 -3 -18 -12
-18 -19 0 -14 41 -25 95 -26 17 0 113 -3 215 -7 173 -7 187 -9 218 -31 l34
-24 -7 409 c-4 225 -11 436 -16 469 -5 33 -12 125 -15 205 -7 183 -27 332 -60
457 -23 90 -64 219 -84 268 -20 49 -122 258 -131 268 -5 7 -41 59 -79 117 -81
123 -110 160 -205 255 -71 72 -139 130 -204 175 -20 14 -44 32 -53 41 -10 8
-39 26 -65 39 -27 13 -50 27 -53 31 -9 13 -149 74 -205 89 -16 5 -50 16 -75
26 -56 21 -123 34 -223 41 -111 8 -161 -8 -265 -83 -22 -16 -24 -16 -50 4 -87
70 -235 94 -417 67z"/>
<path d="M2945 4706 c-89 -22 -235 -109 -235 -141 0 -16 21 -20 35 -6 13 11
91 35 185 56 100 22 308 17 397 -10 34 -11 65 -17 68 -13 27 27 -106 101 -212
117 -90 14 -174 13 -238 -3z"/>
<path d="M4326 4709 c-94 -15 -206 -76 -206 -111 0 -15 4 -18 18 -13 9 4 44
16 77 26 134 43 405 18 557 -51 15 -7 34 -10 44 -6 15 6 15 9 -6 31 -32 35
-185 111 -248 124 -60 12 -163 13 -236 0z"/>
<path d="M2951 4349 c-70 -12 -150 -58 -201 -116 -33 -38 -53 -83 -36 -83 3 0
25 19 50 42 26 23 55 46 65 52 10 6 27 16 38 23 33 20 46 2 28 -40 -30 -72 -9
-194 38 -219 12 -6 63 -13 114 -16 90 -5 94 -4 134 24 23 15 51 43 63 61 24
35 36 34 36 -4 0 -13 4 -23 9 -23 10 0 21 34 21 68 0 34 27 27 71 -18 41 -42
59 -50 59 -25 0 54 -139 189 -245 240 -79 37 -158 48 -244 34z m101 -76 c25
-23 22 -48 -9 -72 -55 -44 -123 19 -76 71 20 22 61 23 85 1z"/>
<path d="M4419 4350 c-81 -14 -168 -66 -256 -155 -62 -61 -83 -89 -83 -109 0
-14 3 -26 7 -26 4 0 26 19 49 41 49 48 74 47 74 -2 0 -35 26 -85 49 -94 9 -3
59 -9 112 -12 l97 -6 56 53 c31 29 56 59 56 67 0 8 5 11 10 8 6 -3 10 -17 10
-31 0 -36 18 -29 26 10 7 40 1 133 -10 159 -22 47 89 -8 149 -74 40 -44 51
-45 41 -4 -18 70 -147 159 -252 175 -76 11 -71 11 -135 0z m-34 -100 c7 -12
-21 -56 -41 -64 -21 -8 -64 11 -64 28 0 29 90 60 105 36z"/>
<path d="M2050 1410 c0 -5 5 -10 11 -10 5 0 7 5 4 10 -3 6 -8 10 -11 10 -2 0
-4 -4 -4 -10z"/>
<path d="M2083 1388 c-2 -5 749 -7 1669 -6 920 2 1462 4 1203 5 -1229 7 -2867
7 -2872 1z"/>
</g>
</svg>
