<?xml version="1.0" standalone="no"?>
<!DOCTYPE svg PUBLIC "-//W3C//DTD SVG 20010904//EN"
 "http://www.w3.org/TR/2001/REC-SVG-20010904/DTD/svg10.dtd">
<svg version="1.0" xmlns="http://www.w3.org/2000/svg"
 width="454.000000pt" height="454.000000pt" viewBox="0 0 454.000000 454.000000"
 preserveAspectRatio="xMidYMid meet">
<metadata>
Created by potrace 1.11, written by Peter Selinger 2001-2013
</metadata>
<g transform="translate(0.000000,454.000000) scale(0.100000,-0.100000)"
fill="#000000" stroke="none">
<path d="M2099 4526 c-2 -2 -35 -7 -74 -11 -801 -78 -1521 -619 -1840 -1378
-59 -142 -124 -368 -140 -485 -2 -20 -7 -48 -10 -62 -20 -96 -26 -384 -11
-545 4 -49 9 -92 11 -95 2 -3 6 -27 9 -55 10 -77 53 -246 88 -348 165 -488
498 -910 938 -1191 194 -124 493 -245 725 -295 321 -69 671 -65 995 10 110 25
102 23 195 54 409 138 772 389 1039 720 75 93 166 220 166 232 0 3 6 14 14 22
25 30 124 226 165 328 84 212 137 436 156 660 5 57 6 345 1 368 -2 11 -7 52
-11 90 -4 39 -9 79 -11 90 -3 11 -7 36 -10 55 -25 157 -108 402 -199 585 -163
331 -453 666 -738 854 -34 22 -66 44 -72 49 -22 17 -174 100 -255 139 -114 54
-334 132 -414 147 -11 2 -39 8 -61 14 -22 6 -71 15 -110 21 -38 6 -86 13 -105
16 -39 7 -435 16 -441 11z"/>
</g>
</svg>
